<svg xmlns="http://www.w3.org/2000/svg" width="619" height="48" viewBox="0 0 619 48" fill="none"><g filter="url(#filter0_i_484_454)"><path d="M0 24C0 10.7452 10.7452 0 24 0H595C608.255 0 619 10.7452 619 24V24C619 37.2548 608.255 48 595 48H24C10.7452 48 0 37.2548 0 24V24Z" fill="white"></path></g><path d="M24 0.5H595C607.979 0.5 618.5 11.0213 618.5 24C618.5 36.9787 607.979 47.5 595 47.5H24C11.0213 47.5 0.5 36.9787 0.5 24C0.5 11.0213 11.0213 0.5 24 0.5Z" stroke="black"></path><defs><filter id="filter0_i_484_454" x="0" y="0" width="619" height="52" filterUnits="userSpaceOnUse" color-interpolation-filters="sRGB"><feGaussianBlur stdDeviation="2"></feGaussianBlur></filter></defs></svg>